<svg xmlns="http://www.w3.org/2000/svg" xmlns:xlink="http://www.w3.org/1999/xlink" width="950.5" height="621.228" xmlns:v="https://vecta.io/nano"><style><![CDATA[.B{fill:#3f3d56}.C{fill:#e6e6e6}.D{fill:#e5cf57}.E{fill:#fff}]]></style><g class="C"><ellipse cx="129" cy="605.728" rx="129" ry="15"/><ellipse cx="821.5" cy="606.228" rx="129" ry="15"/><path d="M793.882 333.19H140.42c-3.818-.004-6.912-3.098-6.916-6.916V6.916C133.51 3.098 136.603.004 140.42 0h653.462c3.818.004 6.91 3.098 6.916 6.916v319.36c-.004 3.818-3.098 6.91-6.916 6.916zM140.42 2.766c-2.29.002-4.147 1.86-4.15 4.15v319.36c.003 2.29 1.86 4.147 4.15 4.15h653.462c2.29-.003 4.147-1.86 4.15-4.15V6.916c-.003-2.29-1.86-4.147-4.15-4.15z"/></g><circle cx="444.168" cy="128.039" r="10.726" class="B"/><circle cx="444.168" cy="128.039" r="6.895" class="D"/><circle cx="490.135" cy="128.039" r="10.726" class="B"/><circle cx="490.135" cy="128.039" r="6.895" class="D"/><use xlink:href="#B" class="B"/><g class="E"><use xlink:href="#C"/><use xlink:href="#C" x="-23.353" y="1.932"/></g><g class="B"><circle cx="456.144" cy="151.814" r="3.687"/><circle cx="480.024" cy="149.005" r="3.687"/></g><circle cx="467.39" cy="164.813" r="3.831" class="D"/><path d="M452.102 170.942a8.44 8.44 0 0 0 8.393 7.661h15.323a8.44 8.44 0 0 0 8.392-7.661z" class="E"/><path d="M229.894 139.148c.004 3.834-2.04 7.38-5.36 9.297s-7.412 1.918-10.732 0-5.364-5.463-5.36-9.297c0-5.924 4.802-30.645 10.726-30.645s10.726 24.72 10.726 30.645z" class="C"/><path d="M226.063 139.148c0 3.808-3.087 6.895-6.895 6.895s-6.895-3.087-6.895-6.895 3.087-26.815 6.895-26.815 6.895 23.006 6.895 26.815z" class="E"/><path d="M254.4 139.148c0 3.832 2.044 7.373 5.363 9.29s7.407 1.916 10.726 0 5.363-5.457 5.363-9.29c0-5.924-4.802-32.944-10.726-32.944s-10.726 27.02-10.726 32.944z" class="C"/><path d="M258.24 139.148c0 3.808 3.087 6.895 6.895 6.895s6.895-3.087 6.895-6.895-3.087-29.113-6.895-29.113-6.895 25.305-6.895 29.113z" class="E"/><use xlink:href="#B" x="-225" y="11.109" class="C"/><g class="E"><use xlink:href="#C" x="-225" y="11.108"/><use xlink:href="#C" x="-248.353" y="13.041"/></g><g class="C"><circle cx="231.144" cy="169.052" r="3.687"/><circle cx="255.79" cy="167.009" r="3.687"/></g><g class="E"><circle cx="242.39" cy="175.922" r="3.831"/><path d="M250.402 178.714c1.3-.682 2.804-.226 4.086.3l4.2 1.698a17.1 17.1 0 0 0 8.413.733c5.103-.954 9.384-5.515 8.238-10.924-.307-1.446-2.523-.834-2.216.6.387 2.203-.392 4.45-2.06 5.94a9.73 9.73 0 0 1-6.752 2.33 20.05 20.05 0 0 1-7.84-2.01c-2.34-1.036-4.796-1.935-7.238-.664-1.313.683-.152 2.667 1.16 1.985zm-14.575-1.984c-2.38-1.24-4.788-.416-7.08.594a20.53 20.53 0 0 1-7.998 2.079c-2.415.103-4.782-.693-6.645-2.233a6.49 6.49 0 0 1-2.167-6.036c.306-1.443-1.9-2.06-2.216-.6-1.147 5.4 3.135 9.97 8.238 10.924a17.06 17.06 0 0 0 8.413-.733c1.446-.472 2.807-1.122 4.2-1.698 1.28-.526 2.776-.982 4.086-.3s2.474-1.3 1.16-1.985z"/><ellipse cx="243.301" cy="186.265" rx="6.129" ry="3.065"/></g><circle cx="653.462" cy="137.325" r="21.637" class="B"/><circle cx="653.462" cy="137.325" r="13.909" class="D"/><circle cx="730.841" cy="137.325" r="21.637" class="B"/><circle cx="730.841" cy="137.325" r="13.909" class="D"/><path d="M668.344 130.43q-.502 0-.998.023c-12.467.585-21.086 12.79-18.048 24.895l.44 1.754c1.563 6.23 2.627 12.564 3.68 18.9 1.5 9.07 9.343 15.72 18.535 15.72h41.16a18.79 18.79 0 0 0 18.67-16.686c.725-5.73 1.83-11.403 3.308-16.985l.678-2.7c3.038-12.106-5.58-24.31-18.048-24.895q-.496-.023-.998-.023z" class="B"/><g class="E"><use xlink:href="#C" x="225.383" y="1.625"/><use xlink:href="#C" x="202.03" y="3.558"/></g><g class="B"><circle cx="677.697" cy="153.439" r="3.687"/><circle cx="701.576" cy="152.162" r="3.687"/></g><path d="M696.604 166.438a3.83 3.83 0 0 1-7.039 2.094 3.83 3.83 0 0 1 .286-4.571c.703-.828 1.512 1.712 2.683 1.712 1.212 0 2.53-2.5 3.233-1.622.542.678.837 1.52.836 2.388z" class="D"/><path d="M684.346 171.8h18.387a0 0 0 0 1 0 0h0a9.194 9.194 0 0 1-9.194 9.194h0a9.194 9.194 0 0 1-9.194-9.194h0a0 0 0 0 1 0 0z" class="E"/><g class="D"><ellipse cx="689.853" cy="126.599" rx="4.98" ry="8.427"/><ellipse cx="822.264" cy="267.517" rx="8.427" ry="4.98" transform="matrix(.573552 -.819169 .819169 .573552 6.76136 648.27029)"/></g><path d="M306.882 230.3H177.42c-3.818-.004-6.912-3.098-6.916-6.916V84.025c.004-3.818 3.098-6.9 6.916-6.916h129.462c3.818.004 6.9 3.098 6.916 6.916v139.36c-.004 3.818-3.098 6.9-6.916 6.916zM177.42 79.875c-2.3.002-4.147 1.86-4.15 4.15v139.36a4.16 4.16 0 0 0 4.15 4.15h129.462a4.16 4.16 0 0 0 4.15-4.15V84.025a4.16 4.16 0 0 0-4.15-4.15zM531.882 230.3H402.42c-3.818-.004-6.9-3.098-6.916-6.916V84.025c.004-3.818 3.098-6.9 6.916-6.916h129.462c3.818.004 6.9 3.098 6.916 6.916v139.36c-.004 3.818-3.098 6.9-6.916 6.916zM402.42 79.875c-2.3.002-4.147 1.86-4.15 4.15v139.36a4.16 4.16 0 0 0 4.15 4.15h129.462a4.16 4.16 0 0 0 4.15-4.15V84.025a4.16 4.16 0 0 0-4.15-4.15zM756.882 230.3H627.42c-3.818-.004-6.9-3.098-6.916-6.916V84.025c.004-3.818 3.098-6.9 6.916-6.916h129.462c3.818.004 6.9 3.098 6.916 6.916v139.36c-.004 3.818-3.098 6.9-6.916 6.916zM627.42 79.875c-2.3.002-4.147 1.86-4.15 4.15v139.36a4.16 4.16 0 0 0 4.15 4.15h129.462a4.16 4.16 0 0 0 4.15-4.15V84.025a4.16 4.16 0 0 0-4.15-4.15z" class="C"/><use xlink:href="#D" class="B"/><use xlink:href="#D" x="-225" class="D"/><use xlink:href="#D" x="-450" class="C"/><g fill="#ffb8b8"><path d="M177 377.728l-3 13s1 30-7 27-6-29-6-29l7-13z"/><circle cx="132.5" cy="215.228" r="20"/><path d="M117 220.728l-2 29 25 3s0-24 2-27-25-5-25-5z"/></g><g class="C"><path d="M172.442 258.494l-32.395-13.685s-15.48-11.923-24.546-3.1l-4.07 5.828s-35.988 14.03-35.978 25.03l14.048 54.988s-7.973 31.007 4.03 32.996l65.005 5.943s9-11.008.978-25l2.97-33.003z"/><path d="M150.443 259.514l22-1.02s7.002 1.994 12.018 21 6.044 49.995 6.044 49.995l-11.95 56-15.002-1.987 5.953-54.005-10.03-36zm-62.995 6.056l-10.844 3.388s-9.142 13.63-9.136 20.63-3.948 60.003-3.948 60.003l26.038 42.977 7.982-21.007-16.024-26.986 12.97-33z"/></g><g fill="#2f2e41"><path d="M161.5 364.228l-71.897-6.326S82.5 403.228 83.5 421.228l2 46-8 122 31-4 4-101 13-55 15 70 10 90 27-3-9-109s8-98-7-113z"/><path d="M171.5 581.228l9 3s19-5 14 8-19 11-19 11-17 13-24 3l4-21zm-73 0l9 3s19-5 14 8-19 11-19 11-17 13-24 3l4-21zm18.5-348.5s-21-15-10-33c7.63-12.487 23.444-11.5 32.414-9.722a15.15 15.15 0 0 1 11.086 8.722c1.5 3.5 1.5 7-4.5 7-12 0-6 9-6 9s-8 2-6 9-17 9-17 9z"/><use xlink:href="#E"/></g><g fill="#9f616a"><path d="M777.537 406.256l-2.275 9.098s-10.235 21.04 2.275 21.04 7.96-19.333 7.96-19.333l1.137-9.098zm109.745-7.392l2.275 9.098S899.792 429 887.282 429s-7.96-19.333-7.96-19.333l-1.137-9.098z"/><circle cx="828.145" cy="219.745" r="24.451"/><path d="M820.753 238.5s2.843 13.08 1.137 19.333 35.255-1.137 35.255-1.137-13.078-21.608-12.5-22.177z"/></g><g class="C"><path d="M826.376 252.99s-10.238-2.834-13.647.58-23.302 13.1-23.302 13.1l13.72 83.577 59.126-13.13 10.166-79.05s-16.133-9.44-18.873-7.554-27.2 2.477-27.2 2.477z"/><path d="M793.977 267.233l-2.73-1.46s-10.347 2.04-9.772 10.002 2.9 52.3 2.9 52.3l-9.028 80.185 16.493 2.83 16.432-67.113zm76.758-7.46l2.728-1.466s10.35 2.023 9.8 9.985-2.797 52.316-2.797 52.316l9.168 80.17-16.488 2.858-16.55-67.084z"/></g><g fill="#2f2e41"><path d="M803.694 342l-2.275 34.686-7.392 69.373 10.804 143.863 37.53 1.137-11.373-137.04 11.373-47.196 37.174-1.377s2.63-54.35-18.41-71.408z"/><path d="M844.635 398.864l-5.97 125.383-2 63.402 33.55 3.412 8.465-186.46-13.014-13.13-21.04 7.392zm-5.685-211.53s-22.177-2.843-28.432 7.96c0 0-1.706 7.96-7.392 10.804s1.137 12.5 2.843 15.353 6.255 19.333 1.137 23.314 9.098 15.353 9.098 15.353 6.824 9.098 1.137 15.922 7.392 9.098 7.392 9.098-2.843 19.333 2.275 14.216c0 0 2.275 43.785 23.882 16.5s30.706-40.373 21.608-51.177-2.275-20.47-2.275-20.47 2.843-5.686-3.412-14.216-6.255-42.647-27.863-42.647z"/><use xlink:href="#E" x="-29" y="3.412"/></g><path d="M555.214 119.69l-32.465-19.56 9.48 36.698 5.715-13.37 9.532 12.782 2.827-2.108-9.532-12.782 14.442-1.66z" class="D"/><path d="M599.108 119.69l32.465-19.56-9.48 36.698-5.715-13.37-9.532 12.782-2.827-2.108 9.532-12.782-14.442-1.66z" class="B"/><defs ><path id="B" d="M442.96 128.805c-10.67-.035-19.607 8.072-20.608 18.695l-2.145 21.98a18.79 18.79 0 0 0 18.701 20.614h56.484a18.79 18.79 0 0 0 18.701-20.614l-2.145-21.98c-1-10.623-9.938-18.73-20.608-18.695z"/><path id="C" d="M472.875 159.882a10.01 10.01 0 0 1 13.98-2.067 10.01 10.01 0 0 0-9.49-15.88 10.01 10.01 0 0 0-4.49 17.947z"/><path id="D" d="M660.152 246.082a1 1 0 0 0-1 1v8a1 1 0 0 0 1 1h64a1 1 0 0 0 1-1v-8a1 1 0 0 0-1-1z"/><path id="E" d="M835.82 583.953s-22.177 1.706-19.902 9.667 19.902 6.824 19.902 6.824 13.647-1.137 21.04 1.137 15.922 0 16.5-3.98-3.98-6.824-3.98-6.824l-2.843-5.686z"/></defs></svg>